<svg xmlns="http://www.w3.org/2000/svg" width="60" height="60.002" viewBox="0 0 60 60.002">
  <g id="accept" transform="translate(-0.277)">
    <path id="Path_1136" data-name="Path 1136" d="M30.278,0a30,30,0,1,0,30,30A30.034,30.034,0,0,0,30.278,0Zm0,57.556A27.555,27.555,0,1,1,57.831,30,27.586,27.586,0,0,1,30.278,57.556Zm0,0" transform="translate(0)" fill="#00c259"/>
    <path id="Path_1137" data-name="Path 1137" d="M126.152,132.529l-21.309,21.363L95.2,144.221a1.223,1.223,0,1,0-1.728,1.732l10.51,10.537a1.22,1.22,0,0,0,1.728,0l22.173-22.229a1.223,1.223,0,1,0-1.728-1.732Zm0,0" transform="translate(-80.397 -114.509)" fill="#00c259"/>
  </g>
</svg>
